<svg width="256" height="256" viewBox="0 0 256 256" fill="none" xmlns="http://www.w3.org/2000/svg">
<path d="M165.158 141.979C166.726 137.648 167.495 133.07 167.43 128.465C167.319 118.241 163.152 108.479 155.845 101.328C148.538 94.1757 138.688 90.2196 128.464 90.3296C123.916 90.3838 119.414 91.2507 115.172 92.8893L124.319 102.121C125.692 101.886 127.082 101.758 128.474 101.739C135.704 101.646 142.676 104.417 147.869 109.447C153.061 114.477 156.053 121.358 156.19 128.586C156.201 129.979 156.103 131.371 155.898 132.749L165.158 141.979Z" fill="black"/>
<path d="M115 164.531C119.393 166.18 124.047 167.016 128.737 167C139.15 167 149.137 162.85 156.5 155.462C164.551 147.756 167.711 137.608 167 127.494C166.995 122.847 163.622 119.353 162 115L156.038 123.245C156.262 124.65 156.377 126.071 156.381 127.494C156.397 134.881 153.498 141.974 148.319 147.224C143.139 152.474 137.5 155 129 156C120.5 157 123 156.5 123 156.5L115 164.531Z" fill="black"/>
<path d="M215.5 125.5C197.5 90.5 163.368 69.6634 126.616 70.0589C116.61 70.1901 106.688 71.9093 97.2205 75.1524L106 83.5C112.646 81.706 119.854 81.404 126.737 81.2982C158.375 80.9577 187.338 98.2938 204.798 127.837C198.629 138.934 190.398 148.751 180.548 156.762L188.614 164.656C200.012 155.256 209.438 143.694 216.349 130.635L217.5 129L215.5 125.5Z" fill="black"/>
<path d="M39.0499 125.214C58.3648 90.4074 91.8048 69.5787 128.557 69.9742C138.563 70.1053 148.486 71.8246 157.953 75.0677L148.807 84.0742C142.162 82.2802 135.319 81.3193 128.436 81.2134C96.7977 80.873 67.8353 98.2091 50.3756 127.753C56.5444 138.849 64.7748 148.666 74.625 156.677L66.5593 164.571C55.1609 155.171 45.7348 143.609 38.8239 130.551L37.3918 127.838L39.0499 125.214Z" fill="black"/>
<path d="M91.0136 115.651C89.4461 119.981 88.6765 124.559 88.7422 129.164C88.8523 139.388 93.0193 149.15 100.327 156.302C107.634 163.453 117.483 167.41 127.708 167.3C132.256 167.245 136.757 166.378 141 164.74L131.852 155.509C130.479 155.743 129.09 155.871 127.697 155.89C120.468 155.983 113.496 153.212 108.303 148.182C103.11 143.152 100.119 136.271 99.9815 129.043C99.9712 127.65 100.069 126.258 100.274 124.881L91.0136 115.651Z" fill="black"/>
<path d="M91.0136 142.064C89.4461 137.734 88.6765 133.155 88.7422 128.551C88.8522 118.326 93.0193 108.565 100.327 101.413C107.634 94.2609 117.483 90.3048 127.708 90.4148C132.256 90.4691 136.757 91.3359 141 92.9745L132 101.5C133 102 129.09 101.843 127.697 101.824C123.415 101.764 113.496 104.502 108.303 109.532C103.11 114.563 100.119 121.443 99.9815 128.672C99.9712 130.064 100.069 131.456 100.274 132.834L91.0136 142.064Z" fill="black"/>
<path d="M39.0486 131.33C58.3634 166.136 91.8034 186.965 128.556 186.57C138.562 186.438 148.484 184.719 157.951 181.476L148.806 172.47C142.16 174.263 135.317 175.224 128.435 175.33C96.7964 175.671 67.834 158.335 50.3742 128.791C56.5431 117.694 64.7735 107.877 74.6237 99.8668L66.5579 91.9728C55.1595 101.373 45.7335 112.935 38.8226 125.993L37.3905 128.706L39.0486 131.33Z" fill="black"/>
<path d="M215.954 131.33C196.639 166.136 163.199 186.965 126.447 186.57C116.441 186.438 106.519 184.719 97.0514 181.476L106.197 172.47C112.842 174.263 119.685 175.224 126.568 175.33C158.206 175.671 187.169 158.335 204.628 128.791C198.46 117.694 190.229 107.877 180.379 99.8668L188.445 91.9728C199.843 101.373 209.269 112.935 216.18 125.993L217.612 128.706L215.954 131.33Z" fill="black"/>
</svg>
