<svg width="256" height="256" viewBox="0 0 256 256" fill="none" xmlns="http://www.w3.org/2000/svg">
<path d="M166.158 140.979C167.725 136.649 168.495 132.071 168.429 127.466C168.319 117.242 164.152 107.48 156.844 100.328C149.537 93.1764 139.688 89.2203 129.463 89.3303C124.915 89.3846 120.414 90.2515 116.171 91.8901L125.319 101.121C126.692 100.886 128.081 100.759 129.474 100.739C136.703 100.647 143.675 103.418 148.868 108.448C154.061 113.478 157.052 120.359 157.19 127.587C157.2 128.98 157.102 130.372 156.897 131.749L166.158 140.979Z" fill="black"/>
<path d="M217.123 124.299C197.808 89.4928 164.368 68.6642 127.615 69.0596C117.609 69.1908 107.687 70.91 98.2199 74.1532L107.365 83.1596C114.011 81.3657 120.854 80.4047 127.736 80.2989C159.375 79.9585 188.337 97.2945 205.797 126.838C199.628 137.935 191.398 147.752 181.547 155.762L189.613 163.656C201.012 154.257 210.438 142.695 217.349 129.636L218.781 126.923L217.123 124.299Z" fill="black"/>
<path d="M51.083 60.0489L76.4162 84.8427C60.6838 95.2135 47.8878 109.462 39.2617 126.214L37.829 128.871L39.3191 131.553C58.634 166.36 92.0739 187.188 128.826 186.793C143.171 186.636 157.295 183.236 170.141 176.85L198.541 204.646L208.285 196.111L60.6025 51.5722L51.083 60.0489ZM106.464 114.251L144.237 151.219C140.042 153.878 135.196 155.33 130.231 155.416C126.623 155.455 123.043 154.78 119.696 153.43C116.35 152.08 113.304 150.082 110.732 147.55C108.161 145.018 106.116 142.003 104.715 138.678C103.314 135.353 102.584 131.783 102.567 128.175C102.578 123.266 103.925 118.452 106.464 114.251V114.251ZM98.2278 106.19C93.05 113.661 90.683 122.723 91.5458 131.772C92.4086 140.821 96.4455 149.273 102.942 155.631C109.438 161.989 117.975 165.843 127.04 166.511C136.105 167.179 145.115 164.617 152.473 159.28L161.561 168.175C151.2 172.736 140.022 175.15 128.702 175.273C97.0638 175.613 68.1015 158.277 50.6417 128.733C58.7105 114.08 70.4256 101.758 84.653 92.9597L98.2278 106.19Z" fill="black"/>
</svg>
